<?xml version="1.0" encoding="UTF-8"?>
<!DOCTYPE svg PUBLIC "-//W3C//DTD SVG 1.0//EN" "http://www.w3.org/TR/2001/REC-SVG-20010904/DTD/svg10.dtd">
<!-- Creator: CorelDRAW -->
<svg xmlns="http://www.w3.org/2000/svg" xml:space="preserve" width="14.424mm" height="16.7652mm" version="1.0" shape-rendering="geometricPrecision" text-rendering="geometricPrecision" image-rendering="optimizeQuality" fill-rule="evenodd" clip-rule="evenodd"
viewBox="0 0 1442.46 1676.59"
 xmlns:xlink="http://www.w3.org/1999/xlink"
 xmlns:xodm="http://www.corel.com/coreldraw/odm/2003">
 <g id="Layer_x0020_1">
  <metadata id="CorelCorpID_0Corel-Layer"/>
  <g id="_105553231336672">
   <path fill="#F8BD7A" d="M38.61 1180.88l96.03 -1 0.15 350.61 306.57 0.58 0.25 101.09 -402.83 0.98 -0.18 -452.27 0 0zm436.77 -1180.88l-474.5 0.22 -0.88 1675.74 474.8 0.63 0.58 -1676.57 0 -0.02z"/>
   <path fill="#F8BD7A" d="M828.7 85.3l-51.19 -0.52c-0.17,14.12 -0.11,28.14 -0.11,42.17 0,10.94 -1.81,26.06 0.67,35.93 3.68,14.72 26.64,9.01 40.49,12.45 6.78,1.69 12.17,1.58 18.8,3.12 4.18,0.96 3.2,1.01 8.9,2.69l5.7 1.6c0.58,0.19 1.21,0.4 1.8,0.57 0.56,0.17 1.18,0.41 1.73,0.58l51.18 16.42c25.25,10.03 53.02,24.89 73.54,41.64 4.11,3.36 7.22,5.14 12.58,9 27.26,19.63 49.15,43.01 69.68,69.68l20.21 29.98c0.85,1.45 1.41,2.37 2.71,4.66 1.92,3.38 2.85,5.15 4.22,7.9 11.45,22.89 18.97,40.29 26.45,65.08 13.15,43.54 22.11,64.25 22.07,116.54 -0.01,41.72 -8.54,78.65 -18.79,117.73 -12.01,45.75 -52.86,112.76 -85.66,144.93 -33.37,32.74 -39.34,35.67 -75.35,61.51l-63.1 30.48c-32.39,12.98 -80.98,22.64 -116.68,23.42l-1.11 89.27c19.96,0.32 29.32,-5.36 51.23,-3.64l45.43 72.02c11.76,19.41 30.57,5.83 59.85,-0.78l67.82 -25.98 60 -33.49c0.32,-18.72 -23.66,-90.37 -19.17,-100.86 2.7,-6.3 14.82,-10.96 19.73,-16.03 17.95,-18.52 38.06,-35.98 54.16,-56.31 16.43,-20.76 27.59,-22.48 53.64,-14.2 0.54,0.16 1.15,0.41 1.67,0.6l9.92 3.91c8.29,2.69 43.85,10.74 50.35,7.77 10.16,-4.63 15.48,-23.07 19.93,-33.28l48.95 -119.3c4.19,-10.69 5.62,-12.42 3.97,-27.71 -11.25,-5.72 -74.58,-41.75 -79.18,-48.03 -5.66,-18.28 0.23,-49.3 0.2,-69.64 -0.08,-52 -17.08,-63.08 13.32,-79.25l66.18 -41.58c0.46,-11.23 -1.37,-16.86 -3.91,-25.52 -8.56,-29.1 -21.95,-64.15 -34.57,-90.37l-27.4 -51.66c-3.56,-5.71 -3.12,-5.4 -7.48,-9.73 -18.53,-8.49 -73.83,20 -100.86,18.13l-41.19 -48.63c-15.24,-15.15 -32.25,-29.37 -47.68,-43.62 -7.09,-14.65 20.8,-77.37 18,-100.86l-29.24 -17.41c-25.54,-13.75 -56.77,-25.47 -83.19,-37.03 -16.84,-7.34 -38.46,-16.08 -56.95,-16.37 -18.38,-0.28 -25.84,26.79 -34.02,39.09 -3.02,4.51 -6.08,9.89 -9.23,14.77 -5.11,7.91 -13.15,20.5 -19.08,28.14l0.06 0.03z"/>
   <g>
    <path fill="#F8BD7A" d="M622.34 1557.02l0.13 0 0.08 0 204.01 -0.78 35.78 77.62 89.45 -0.1 -178.42 -364.79 -88.73 0.74 -180.27 364.26 80.2 -0.86 37.76 -76.07 0 -0.02zm-37.76 76.07l-80.2 0.87 80.2 -0.87 37.76 -76.07 -37.76 76.07zm139.06 -286.57l68.46 134.65 -133.02 -0.9 64.55 -133.75z"/>
   </g>
   <path fill="#F8BD7A" fill-rule="nonzero" d="M1053.4 1635.1l0 -366.04 239.39 0c39.91,0 69.94,7.57 90.47,22.97 20.39,15.38 30.53,38.14 30.53,68.13 0,14.6 -3.13,27.62 -9.5,39.16 -6.38,11.54 -15.39,20.83 -27.16,27.83 21.53,11.32 37.8,25.13 48.8,41.43 11.01,16.41 16.52,35.19 16.52,56.35 0,33.85 -12.27,60.67 -36.91,80.48 -24.53,19.82 -57.81,29.66 -99.85,29.66l-252.27 0 -0.02 0.01zm81.68 -82.66l149.12 0c16.2,0 28.89,-2.98 38.23,-9.01 9.24,-5.96 13.92,-14.13 13.92,-24.52 0,-10.22 -4.66,-18.4 -13.92,-24.42 -9.34,-6.03 -22.03,-9.06 -38.23,-9.06l-149.12 0 0 67.03 0 -0.02zm0 -140.94l150.35 0c16.42,0 29.05,-2.74 37.81,-8.11 8.74,-5.38 13.12,-13.14 13.12,-23.21 0,-10.69 -4.18,-18.66 -12.64,-23.98 -8.45,-5.31 -21.27,-7.97 -38.29,-7.97l-150.35 0 0 63.27z"/>
  </g>
 </g>
</svg>
